<?xml version="1.0" encoding="UTF-8" standalone="no"?>
<svg
   width="512"
   height="512"
   viewBox="0 0 512 512"
   version="1.1"
   id="svg14"
   sodipodi:docname="Usage mode_Universal Design_fond bleu.svg"
   inkscape:export-filename="Usage mode_Universal Design_fond bleu.png"
   inkscape:export-xdpi="96"
   inkscape:export-ydpi="96"
   inkscape:version="1.4 (86a8ad7, 2024-10-11)"
   xml:space="preserve"
   xmlns:inkscape="http://www.inkscape.org/namespaces/inkscape"
   xmlns:sodipodi="http://sodipodi.sourceforge.net/DTD/sodipodi-0.dtd"
   xmlns="http://www.w3.org/2000/svg"
   xmlns:svg="http://www.w3.org/2000/svg"
   xmlns:rdf="http://www.w3.org/1999/02/22-rdf-syntax-ns#"
   xmlns:cc="http://creativecommons.org/ns#"
   xmlns:dc="http://purl.org/dc/elements/1.1/"><metadata
     id="metadata20"><rdf:RDF><cc:Work
         rdf:about=""><dc:format>image/svg+xml</dc:format><dc:type
           rdf:resource="http://purl.org/dc/dcmitype/StillImage" /><dc:title>ic_profils_title</dc:title></cc:Work></rdf:RDF></metadata><defs
     id="defs18" /><sodipodi:namedview
     pagecolor="#ffffff"
     bordercolor="#666666"
     borderopacity="1"
     objecttolerance="10"
     gridtolerance="10"
     guidetolerance="10"
     inkscape:pageopacity="0"
     inkscape:pageshadow="2"
     inkscape:window-width="1280"
     inkscape:window-height="649"
     id="namedview16"
     showgrid="false"
     inkscape:zoom="0.4609375"
     inkscape:cx="151.86441"
     inkscape:cy="254.91525"
     inkscape:window-x="1272"
     inkscape:window-y="174"
     inkscape:window-maximized="1"
     inkscape:current-layer="g12"
     inkscape:showpageshadow="2"
     inkscape:pagecheckerboard="0"
     inkscape:deskcolor="#d1d1d1" /><title
     id="title2">ic_profils_title</title><g
     id="g12"><path
       d="M 256,4.338983 C 115.79349,4.338983 2.1787234,115.8523 2.1787234,256.00923 2.1787234,396.16617 115.79349,509.83051 256,509.83051 c 140.20651,0 253.82128,-113.66434 253.82128,-253.82128 C 509.82128,115.8523 396.15694,4.338983 256,4.338983 Z"
       id="path4"
       inkscape:export-xdpi="96"
       inkscape:export-ydpi="96"
       style="fill:#10499e;fill-opacity:1;stroke:none;stroke-width:33.1157;stroke-miterlimit:4;stroke-dasharray:none;stroke-opacity:0.866973"
       inkscape:connector-curvature="0"
       sodipodi:nodetypes="sssss" /><g
       id="g10"
       style="fill:#ffffff;fill-opacity:1"><path
         d="M256,127.18a28.42,28.42,0,1,0-28.42-28.42A28.42,28.42,0,0,0,256,127.18Z"
         id="path6"
         style="fill:#ffffff;fill-opacity:1;stroke:none" /><path
         d="M390.45,121.26A13.39,13.39,0,0,0,373,114s-97,38-116.88,38-116.73-38.2-116.73-38.2A13.63,13.63,0,0,0,129,139s87.22,33.74,95.34,41.87c10.76,10.76-35.91,255.82-33.28,241a16.36,16.36,0,0,0,32,6.88s27.46-137.32,33-137.32,33,137.32,33,137.32a16.36,16.36,0,0,0,32-6.88c-32.36-224.55-33.28-224.41-33.28-241,0-10.06,95.32-42.07,95.32-42.07A13.42,13.42,0,0,0,390.45,121.26Z"
         id="path8"
         style="fill:#ffffff;fill-opacity:1;stroke:none;stroke-opacity:0.86697251;stroke-width:1;stroke-miterlimit:4;stroke-dasharray:none" /></g></g></svg>
